<svg width="130" height="43" viewBox="0 0 130 43" fill="none" xmlns="http://www.w3.org/2000/svg">
<g clip-path="url(#clip0)">
<path fill-rule="evenodd" clip-rule="evenodd" d="M53.4414 32.4617H47.7436C46.9148 32.4617 46.3302 32.2702 45.975 31.8872C45.6272 31.5043 45.4496 30.8915 45.4496 30.0643V15.5499C45.4496 14.6997 45.6272 14.087 45.9898 13.7193C46.3524 13.344 46.9296 13.1526 47.7436 13.1526H49.2087L52.0724 16.7065C51.7025 17.0588 51.4805 17.5643 51.4805 18.1235C51.4805 18.9966 52.0428 19.7396 52.8124 19.977L52.139 24.8177C51.3399 25.0322 50.7553 25.7904 50.7553 26.6866C50.7553 27.7512 51.5915 28.6167 52.62 28.6167C52.842 28.6167 53.0492 28.5784 53.249 28.5018L56.1127 32.2932C56.0831 32.3008 56.0535 32.3008 56.0239 32.3085C55.284 32.4081 54.4182 32.4617 53.4414 32.4617ZM50.5481 13.1526H53.7818C54.6698 13.1526 55.4468 13.2138 56.0979 13.3287C56.7491 13.4436 57.3411 13.6581 57.8517 13.9874C58.2957 14.2555 58.6805 14.6002 59.0283 15.0214C59.3687 15.435 59.6203 15.8946 59.7978 16.4001C59.9754 16.9056 60.0716 17.4341 60.0716 18.0009C60.0716 19.9311 59.1393 21.348 57.2671 22.2442C59.7239 23.0484 60.9448 24.6186 60.9448 26.9546C60.9448 28.0346 60.6784 29.0073 60.1456 29.8728C59.6055 30.7383 58.8877 31.3741 57.9775 31.7877C57.7481 31.8872 57.5113 31.9715 57.2523 32.0481L54.0852 27.8814C54.3368 27.5521 54.4848 27.1385 54.4848 26.6866C54.4848 25.8211 53.9372 25.0858 53.1824 24.8407L53.8558 19.977C54.6402 19.7472 55.21 19.0043 55.21 18.1235C55.21 17.0588 54.3738 16.1933 53.3452 16.1933C53.2342 16.1933 53.1232 16.201 53.0196 16.2163L50.5481 13.1526Z" fill="#00AFEF" stroke="#00AFEF" stroke-width="0.8"/>
<path fill-rule="evenodd" clip-rule="evenodd" d="M66.3247 20.1378V30.317C66.3247 31.0217 66.1619 31.5579 65.8437 31.9178C65.5181 32.2778 65.1111 32.4617 64.6153 32.4617C64.1121 32.4617 63.7125 32.2702 63.4018 31.9025C63.091 31.5349 62.9282 31.0064 62.9282 30.317V20.245C62.9282 19.548 63.091 19.0196 63.4018 18.6672C63.7125 18.3149 64.1121 18.1387 64.6153 18.1387C65.1111 18.1387 65.5181 18.3149 65.8437 18.6672C66.1619 19.0196 66.3247 19.5174 66.3247 20.1378ZM64.6449 16.4996C64.1713 16.4996 63.7717 16.3541 63.4314 16.0554C63.0984 15.7567 62.9282 15.3278 62.9282 14.7763C62.9282 14.2861 63.0984 13.8725 63.4462 13.5508C63.7939 13.2291 64.1935 13.0683 64.6449 13.0683C65.0889 13.0683 65.4737 13.2138 65.8141 13.5048C66.1545 13.8036 66.3247 14.2248 66.3247 14.7763C66.3247 15.3201 66.1619 15.7414 65.8289 16.0477C65.4959 16.3465 65.1037 16.4996 64.6449 16.4996Z" fill="#00AFEF" stroke="#00AFEF" stroke-width="0.8"/>
<path fill-rule="evenodd" clip-rule="evenodd" d="M71.8744 20.0842V20.5132C72.4738 19.6936 73.1324 19.0962 73.8427 18.7132C74.5531 18.3303 75.3671 18.1388 76.2921 18.1388C77.1875 18.1388 77.9866 18.3456 78.697 18.7515C79.4074 19.1498 79.9328 19.7243 80.2806 20.4596C80.51 20.8961 80.6506 21.3557 80.7172 21.8535C80.7838 22.3514 80.8208 22.9871 80.8208 23.7607V30.3171C80.8208 31.0218 80.658 31.5579 80.3472 31.9179C80.0364 32.2779 79.6294 32.4617 79.1336 32.4617C78.623 32.4617 78.216 32.2702 77.8978 31.9026C77.5797 31.5349 77.4243 31.0064 77.4243 30.3171V24.4424C77.4243 23.2858 77.2689 22.3974 76.9581 21.7846C76.6473 21.1719 76.0257 20.8655 75.0933 20.8655C74.4865 20.8655 73.9315 21.0493 73.4358 21.4246C72.9326 21.7923 72.57 22.3131 72.3406 22.9641C72.1778 23.4926 72.089 24.4654 72.089 25.9053V30.3171C72.089 31.0294 71.9262 31.5656 71.608 31.9179C71.2898 32.2779 70.8754 32.4617 70.3722 32.4617C69.8838 32.4617 69.4843 32.2702 69.1661 31.9026C68.8553 31.5349 68.6925 31.0064 68.6925 30.3171V20.1379C68.6925 19.4715 68.8331 18.966 69.1143 18.6366C69.4029 18.3073 69.7802 18.1388 70.276 18.1388C70.572 18.1388 70.8458 18.2154 71.0826 18.3609C71.3268 18.5064 71.5118 18.7285 71.6598 19.0196C71.8004 19.3107 71.8744 19.6706 71.8744 20.0842Z" fill="#00AFEF" stroke="#00AFEF" stroke-width="0.8"/>
<path fill-rule="evenodd" clip-rule="evenodd" d="M92.1424 30.4778C91.3136 31.1442 90.5218 31.6344 89.7523 31.9637C88.9827 32.2931 88.1169 32.4616 87.1697 32.4616C86.2965 32.4616 85.527 32.2778 84.8684 31.9178C84.2098 31.5655 83.6992 31.0829 83.3366 30.4702C82.9814 29.8574 82.8038 29.1987 82.8038 28.4864C82.8038 27.5213 83.0924 26.7018 83.6844 26.0278C84.2764 25.3461 85.0904 24.8865 86.1264 24.6568C86.3409 24.6031 86.8737 24.4883 87.7247 24.3121C88.5831 24.1283 89.3157 23.9674 89.9299 23.8142C90.5366 23.6611 91.2026 23.4849 91.913 23.2628C91.8686 22.336 91.691 21.6543 91.3728 21.2254C91.0472 20.7888 90.3886 20.5743 89.3823 20.5743C88.5165 20.5743 87.8653 20.6969 87.4361 20.942C86.9995 21.1948 86.6221 21.5624 86.3113 22.0679C86.0006 22.5658 85.7786 22.8951 85.6528 23.056C85.5196 23.2092 85.2458 23.2934 84.824 23.2934C84.4392 23.2934 84.1062 23.1632 83.8324 22.9104C83.5586 22.6577 83.418 22.336 83.418 21.9377C83.418 21.3173 83.6252 20.7122 84.047 20.1301C84.4762 19.5403 85.1348 19.0578 86.0302 18.6825C86.9255 18.3072 88.0503 18.1157 89.3897 18.1157C90.877 18.1157 92.061 18.2995 92.912 18.6672C93.7704 19.0272 94.3698 19.6093 94.7249 20.3982C95.0801 21.1948 95.2577 22.2364 95.2577 23.5462C95.2577 24.3734 95.2503 25.078 95.2503 25.6525C95.2429 26.2269 95.2429 26.8703 95.2281 27.575C95.2281 28.2337 95.3391 28.9307 95.5537 29.643C95.7609 30.3553 95.8645 30.8225 95.8645 31.0293C95.8645 31.3893 95.7017 31.7187 95.3761 32.0174C95.0431 32.3084 94.6731 32.4616 94.2588 32.4616C93.911 32.4616 93.5632 32.2931 93.2228 31.9484C92.8824 31.6114 92.5198 31.1212 92.1424 30.4778ZM91.913 25.3767C91.4172 25.5682 90.692 25.7674 89.7375 25.9742C88.7903 26.1886 88.1317 26.3495 87.7691 26.4414C87.3991 26.5486 87.0513 26.7401 86.7183 27.0235C86.3853 27.3145 86.2226 27.7205 86.2226 28.2337C86.2226 28.7698 86.4149 29.2217 86.8071 29.597C87.1993 29.9723 87.7099 30.1638 88.3389 30.1638C89.0123 30.1638 89.6339 30.003 90.1963 29.7043C90.766 29.3979 91.1878 28.9996 91.4542 28.5171C91.7576 27.9886 91.913 27.1077 91.913 25.8823V25.3767Z" fill="#FEFEFE" stroke="#FEFEFE" stroke-width="0.8"/>
<path fill-rule="evenodd" clip-rule="evenodd" d="M101.244 20.1378V30.317C101.244 31.0217 101.081 31.5579 100.763 31.9178C100.438 32.2778 100.031 32.4617 99.5275 32.4617C99.0317 32.4617 98.6322 32.2702 98.3214 31.9025C98.0106 31.5349 97.8478 31.0064 97.8478 30.317V20.245C97.8478 19.548 98.0106 19.0196 98.3214 18.6672C98.6322 18.3149 99.0317 18.1387 99.5275 18.1387C100.031 18.1387 100.438 18.3149 100.763 18.6672C101.081 19.0196 101.244 19.5174 101.244 20.1378ZM99.5645 16.4996C99.0909 16.4996 98.6913 16.3541 98.351 16.0554C98.018 15.7567 97.8478 15.3278 97.8478 14.7763C97.8478 14.2861 98.018 13.8725 98.3658 13.5508C98.7135 13.2291 99.1131 13.0683 99.5645 13.0683C100.009 13.0683 100.393 13.2138 100.734 13.5048C101.074 13.8036 101.244 14.2248 101.244 14.7763C101.244 15.3201 101.081 15.7414 100.748 16.0477C100.415 16.3465 100.023 16.4996 99.5645 16.4996Z" fill="#FEFEFE" stroke="#FEFEFE" stroke-width="0.8"/>
<path fill-rule="evenodd" clip-rule="evenodd" d="M113.95 22.4968L107.719 29.7119H114.386C114.927 29.7119 115.334 29.8421 115.607 30.1025C115.881 30.3706 116.014 30.7076 116.014 31.1136C116.014 31.5119 115.881 31.8335 115.615 32.0863C115.341 32.3314 114.934 32.4616 114.386 32.4616H105.159C104.515 32.4616 104.027 32.3161 103.708 32.0174C103.39 31.7263 103.227 31.328 103.227 30.8225C103.227 30.5238 103.338 30.2174 103.568 29.9111C103.79 29.6047 104.256 29.0456 104.959 28.226C105.714 27.3682 106.387 26.5869 107.001 25.8899C107.608 25.1929 108.178 24.5419 108.703 23.9368C109.221 23.3317 109.658 22.8185 110.006 22.3973C110.346 21.9683 110.62 21.6084 110.834 21.3096H105.773C105.077 21.3096 104.552 21.2484 104.189 21.1182C103.834 20.988 103.657 20.6509 103.657 20.0995C103.657 19.7012 103.79 19.3718 104.056 19.1344C104.33 18.897 104.715 18.7744 105.211 18.7744H113.025C113.75 18.7744 114.305 18.8816 114.69 19.1038C115.075 19.3182 115.267 19.7165 115.267 20.2833C115.267 20.4671 115.23 20.6663 115.156 20.8654C115.082 21.0722 115.001 21.2331 114.904 21.3633C114.816 21.4935 114.69 21.6467 114.534 21.8381C114.372 22.022 114.179 22.2364 113.95 22.4968Z" fill="#00AFEF" stroke="#00AFEF" stroke-width="0.8"/>
<path fill-rule="evenodd" clip-rule="evenodd" d="M126.981 26.1733H120.328C120.336 26.9699 120.491 27.6745 120.795 28.2873C121.098 28.9 121.505 29.3596 122.001 29.666C122.504 29.98 123.059 30.1332 123.666 30.1332C124.073 30.1332 124.443 30.0872 124.783 29.9876C125.123 29.8881 125.442 29.7349 125.76 29.5204C126.078 29.3136 126.367 29.0838 126.633 28.8464C126.899 28.6013 127.24 28.2796 127.669 27.8584C127.847 27.7052 128.091 27.6286 128.416 27.6286C128.764 27.6286 129.045 27.7281 129.267 27.9273C129.475 28.1188 129.586 28.4022 129.586 28.7622C129.586 29.0838 129.467 29.4515 129.223 29.8804C128.986 30.3017 128.624 30.7076 128.135 31.0982C127.647 31.4889 127.04 31.8182 126.3 32.071C125.567 32.3314 124.724 32.4616 123.769 32.4616C121.579 32.4616 119.884 31.8106 118.671 30.5238C117.457 29.2294 116.858 27.483 116.858 25.2695C116.858 24.2355 117.006 23.2628 117.302 22.3743C117.598 21.4858 118.042 20.7275 118.612 20.0842C119.181 19.4561 119.892 18.9659 120.728 18.6289C121.564 18.2842 122.496 18.1157 123.518 18.1157C124.85 18.1157 125.989 18.4068 126.936 18.9889C127.891 19.571 128.601 20.3139 129.075 21.2407C129.549 22.1598 129.785 23.1019 129.785 24.0517C129.785 24.9402 129.541 25.5146 129.053 25.7827C128.564 26.0354 127.876 26.1733 126.981 26.1733ZM120.328 24.1666H126.492C126.411 22.9641 126.1 22.0603 125.553 21.4628C125.012 20.8731 124.295 20.5743 123.407 20.5743C122.556 20.5743 121.86 20.8731 121.32 21.4781C120.772 22.0832 120.439 22.9794 120.328 24.1666Z" fill="#00AFEF" stroke="#00AFEF" stroke-width="0.8"/>
<path d="M20.7417 42.9381C32.197 42.9381 41.4834 33.3261 41.4834 21.4691C41.4834 9.61203 32.197 0 20.7417 0C9.28637 0 0 9.61203 0 21.4691C0 33.3261 9.28637 42.9381 20.7417 42.9381Z" fill="#00AFEF"/>
<path d="M20.5716 18.4298C23.9064 18.4298 26.6098 15.6316 26.6098 12.1798C26.6098 8.72805 23.9064 5.92982 20.5716 5.92982C17.2367 5.92982 14.5333 8.72805 14.5333 12.1798C14.5333 15.6316 17.2367 18.4298 20.5716 18.4298Z" fill="#FEFEFE"/>
<path d="M25.4184 3.21087C25.4554 3.14959 25.5368 3.12661 25.596 3.16491C25.6626 3.19555 25.6848 3.2798 25.6478 3.34873L23.7017 6.83372C23.6277 6.78776 23.5463 6.74181 23.4723 6.70351L25.4184 3.21087ZM15.4879 3.34873C15.4509 3.2798 15.4731 3.19555 15.5397 3.16491C15.5989 3.12661 15.6803 3.14193 15.7172 3.21087L17.6634 6.69585C17.5894 6.74181 17.508 6.78776 17.434 6.83372L15.4879 3.34873Z" fill="#0000FA"/>
<path fill-rule="evenodd" clip-rule="evenodd" d="M20.5714 17.6561C23.4943 17.6561 25.8623 15.2051 25.8623 12.1797C25.8623 9.15429 23.4943 6.69565 20.5714 6.69565C17.6411 6.69565 15.2731 9.15429 15.2731 12.1797C15.2731 15.2051 17.6411 17.6561 20.5714 17.6561Z" stroke="#0000FA" stroke-width="0.8" stroke-linecap="round" stroke-linejoin="round"/>
<path fill-rule="evenodd" clip-rule="evenodd" d="M20.5714 17.6561C23.4943 17.6561 25.8623 15.2051 25.8623 12.1797C25.8623 9.15429 23.4943 6.69565 20.5714 6.69565C17.6411 6.69565 15.2731 9.15429 15.2731 12.1797C15.2731 15.2051 17.6411 17.6561 20.5714 17.6561Z" fill="#FEFEFE" stroke="#0000FA" stroke-width="0.8"/>
<path d="M18.6254 10.4642C18.9646 10.4642 19.2395 10.1796 19.2395 9.82849C19.2395 9.47739 18.9646 9.19276 18.6254 9.19276C18.2862 9.19276 18.0112 9.47739 18.0112 9.82849C18.0112 10.1796 18.2862 10.4642 18.6254 10.4642Z" fill="#0000FA"/>
<path d="M22.5103 10.4642C22.8495 10.4642 23.1245 10.1796 23.1245 9.82849C23.1245 9.47739 22.8495 9.19276 22.5103 9.19276C22.1711 9.19276 21.8961 9.47739 21.8961 9.82849C21.8961 10.1796 22.1711 10.4642 22.5103 10.4642Z" fill="#0000FA"/>
<path fill-rule="evenodd" clip-rule="evenodd" d="M18.9436 31.083C19.0398 30.9298 19.1138 30.7307 19.1212 30.5239C19.1286 30.3171 19.0768 30.1179 18.951 30.0566C18.8252 30.003 18.6106 30.0796 18.4552 30.2022C18.2998 30.3247 18.1888 30.4932 18.1222 30.6541C18.0482 30.8149 18.0112 30.9834 18.0038 31.0906C17.989 31.2055 18.0038 31.2591 18.0334 31.3204C18.063 31.374 18.1074 31.4353 18.174 31.466C18.2332 31.4966 18.3146 31.5042 18.3886 31.4889C18.4552 31.4813 18.5144 31.4506 18.6106 31.3894C18.7068 31.3281 18.84 31.2362 18.9436 31.083Z" fill="#FEFEFE" stroke="#0000FA" stroke-width="0.8" stroke-linecap="round" stroke-linejoin="round"/>
<path fill-rule="evenodd" clip-rule="evenodd" d="M19.0545 30.1027C19.2025 29.8883 19.3135 29.6049 19.4023 29.3215C19.4911 29.0381 19.5503 28.77 19.4911 28.5632C19.4319 28.3641 19.2543 28.2339 19.0397 28.1726C18.8251 28.1036 18.5809 28.1036 18.4107 28.2185C18.2405 28.3258 18.1443 28.5479 17.9889 28.747C17.8261 28.9538 17.6041 29.13 17.4561 29.3062C17.3007 29.4823 17.2193 29.6508 17.1231 29.9112C17.0195 30.1717 16.8937 30.5317 16.8493 30.7691C16.8049 31.0142 16.8345 31.1367 16.9233 31.2363C17.0121 31.3282 17.1527 31.3895 17.3229 31.3895C17.4931 31.3895 17.6781 31.3206 17.8483 31.2287C18.0111 31.1367 18.1591 31.0065 18.2701 30.8916C18.3885 30.7768 18.4773 30.6772 18.6105 30.5623C18.7363 30.4474 18.9139 30.3095 19.0545 30.1027Z" fill="#FEFEFE" stroke="#0000FA" stroke-width="0.8" stroke-linecap="round" stroke-linejoin="round"/>
<path fill-rule="evenodd" clip-rule="evenodd" d="M17.8409 26.4186C17.7225 26.5794 17.5375 26.8169 17.4117 27.062C17.2933 27.3147 17.2415 27.5751 17.1749 27.8049C17.1157 28.027 17.0417 28.2109 16.9455 28.4177C16.8419 28.6245 16.7013 28.8466 16.6495 29.0687C16.5977 29.2908 16.6347 29.5206 16.8049 29.6661C16.9825 29.8117 17.2859 29.8729 17.5079 29.85C17.7299 29.827 17.8705 29.7197 18.0111 29.5895C18.1591 29.467 18.3071 29.3215 18.4477 29.0993C18.5957 28.8772 18.7289 28.5862 18.9065 28.4023C19.0915 28.2262 19.3061 28.1649 19.4985 28.05C19.6909 27.9275 19.8537 27.7436 19.9573 27.4832C20.0609 27.2228 20.1052 26.8858 20.1496 26.5181C20.194 26.1428 20.2236 25.7369 20.0683 25.4995C19.9129 25.2544 19.5651 25.1701 19.3283 25.1854C19.0841 25.2007 18.9583 25.308 18.8177 25.4075C18.6771 25.5071 18.5365 25.599 18.4107 25.7063C18.2849 25.8211 18.1813 25.9514 18.0999 26.0586C18.0185 26.1658 17.9593 26.2577 17.8409 26.4186Z" fill="#FEFEFE" stroke="#0000FA" stroke-width="0.8" stroke-linecap="round" stroke-linejoin="round"/>
<path fill-rule="evenodd" clip-rule="evenodd" d="M19.417 23.2705C19.2691 23.3011 19.0545 23.4007 18.8991 23.5462C18.7363 23.6841 18.6179 23.8756 18.4847 24.1283C18.3515 24.3887 18.1961 24.7104 18.0777 24.9555C17.9593 25.2006 17.8779 25.3615 17.7965 25.53C17.7151 25.6908 17.6485 25.8517 17.6559 25.9895C17.6633 26.1197 17.7595 26.227 17.8557 26.3112C17.9519 26.3878 18.0555 26.4414 18.1961 26.4644C18.3367 26.4874 18.5069 26.4874 18.6623 26.4567C18.8103 26.4338 18.9361 26.3878 19.0693 26.2729C19.2099 26.158 19.3505 25.9742 19.4984 25.8517C19.639 25.7291 19.787 25.6602 19.8758 25.5529C19.9646 25.4457 20.009 25.3002 20.0386 25.101C20.0682 24.9019 20.0904 24.6491 20.0978 24.4194C20.0978 24.1896 20.0756 23.9828 20.0238 23.799C19.9646 23.6151 19.861 23.4466 19.7648 23.3471C19.6686 23.2552 19.5724 23.2322 19.417 23.2705Z" fill="#FEFEFE" stroke="#0000FA" stroke-width="0.8" stroke-linecap="round" stroke-linejoin="round"/>
<path fill-rule="evenodd" clip-rule="evenodd" d="M19.6539 20.3216H21.4817V21.7156C21.2745 21.5547 21.0081 21.4092 20.7269 21.3939C20.4013 21.3786 20.0609 21.5394 19.8611 21.7692C19.7723 21.8764 19.7057 21.999 19.6539 22.1445V20.3216Z" fill="#FEFEFE"/>
<path fill-rule="evenodd" clip-rule="evenodd" d="M27.1055 40.8103C27.1351 40.8792 27.1425 40.9175 26.9871 40.9405C26.8391 40.9711 26.5283 41.0017 25.9733 41.0247C25.4109 41.0554 24.597 41.0783 23.9458 41.109C23.2872 41.132 22.784 41.1626 22.5102 41.1473C22.229 41.1243 22.1772 41.063 22.0514 40.6341C21.933 40.1975 21.748 39.3933 21.5334 38.7499C21.3188 38.1065 21.0746 37.6163 20.8083 37.1797C20.5419 36.7508 20.2459 36.3679 19.9351 35.8011C19.6243 35.2343 19.2987 34.476 19.0545 33.7177C18.8029 32.9671 18.6327 32.2089 18.5809 31.4506C18.5217 30.6923 18.5809 29.934 18.7511 29.2677C18.9139 28.609 19.1877 28.0422 19.3357 27.6133C19.4763 27.192 19.4911 26.9086 19.4985 26.5256C19.5059 26.1503 19.5059 25.6755 19.4763 25.3002C19.4541 24.9248 19.4097 24.6568 19.4097 24.2279C19.4097 23.7989 19.4689 23.2092 19.5281 22.7649C19.5873 22.313 19.6613 22.0066 19.8611 21.7692C20.0609 21.5394 20.4013 21.3786 20.6899 21.3709C20.9858 21.3633 21.23 21.5088 21.3928 21.6237C21.5482 21.7462 21.6222 21.8381 21.6666 21.8994C21.7184 21.9607 21.748 21.999 21.7776 22.0143C21.8072 22.0296 21.8294 22.0296 21.896 22.0449C21.9626 22.0526 22.0736 22.0679 22.1846 22.1139C22.2882 22.1522 22.3992 22.2211 22.5546 22.3666C22.7174 22.5122 22.932 22.7419 23.1466 23.0024C23.3686 23.2628 23.598 23.5462 23.8422 23.8449C24.0864 24.1513 24.338 24.4576 24.6118 24.787C24.8781 25.1163 25.1593 25.461 25.4183 25.7674C25.6773 26.0661 25.9141 26.3342 26.0917 26.6712C26.2619 27.0005 26.3655 27.4141 26.3433 27.9196C26.3211 28.4328 26.1657 29.0456 26.0473 29.643C25.9289 30.2481 25.8475 30.8378 25.7735 31.5655C25.6921 32.3008 25.6181 33.1739 25.6033 33.9092C25.5959 34.6445 25.6403 35.2419 25.7735 36.0155C25.9067 36.7891 26.1287 37.7465 26.3359 38.5278C26.5505 39.309 26.7503 39.9218 26.8835 40.2818C27.0167 40.6418 27.0685 40.749 27.1055 40.8103Z" fill="#FEFEFE" stroke="#0000FA" stroke-width="0.8" stroke-linecap="round" stroke-linejoin="round"/>
<path fill-rule="evenodd" clip-rule="evenodd" d="M21.3708 18.3685V19.5634H19.765V18.3685C20.024 18.4068 20.2978 18.4298 20.5716 18.4298C20.838 18.4298 21.1118 18.4068 21.3708 18.3685Z" fill="#FEFEFE"/>
<path fill-rule="evenodd" clip-rule="evenodd" d="M20.0313 19.5633H21.1043V20.322H20.0313V19.5633Z" fill="#FEFEFE"/>
<path d="M18.9805 27.9581C19.0619 27.9428 19.1433 27.9351 19.2247 27.9198" stroke="#0000FA" stroke-width="0.8" stroke-linecap="round" stroke-linejoin="round"/>
<path fill-rule="evenodd" clip-rule="evenodd" d="M20.0535 22.0221C20.1349 21.9302 20.2533 21.8306 20.3939 21.777C20.5345 21.7234 20.6973 21.7157 20.8601 21.7387C21.0229 21.754 21.1857 21.8076 21.3041 21.8995C21.4151 21.9914 21.4891 22.114 21.5261 22.2365C21.5705 22.3591 21.5705 22.4663 21.5705 22.5965C21.5631 22.7344 21.5557 22.8952 21.5335 23.0024C21.5113 23.102 21.4817 23.1556 21.3929 23.1863C21.3041 23.2169 21.1487 23.2246 20.9711 23.2322C20.8009 23.2322 20.6085 23.2322 20.4531 23.2246C20.2903 23.2169 20.1645 23.2092 20.0757 23.1786C19.9795 23.1556 19.9203 23.1097 19.8981 22.9641C19.8759 22.811 19.8833 22.5505 19.9055 22.3744C19.9277 22.2059 19.9721 22.114 20.0535 22.0221Z" fill="#FEFEFE" stroke="#0000FA" stroke-width="0.8" stroke-linecap="round" stroke-linejoin="round"/>
<path d="M21.7185 21.9608C21.7777 22.0527 21.8369 22.1447 21.8739 22.3132C21.9035 22.474 21.9109 22.7114 21.9109 23.0485C21.9109 23.3778 21.9035 23.8067 21.9035 24.1208C21.9109 24.4424 21.9257 24.6493 21.9849 24.9939C22.0515 25.3386 22.1699 25.8288 22.3031 26.3037C22.4437 26.7785 22.5991 27.2381 22.7323 27.667C22.8655 28.0883 22.9839 28.4789 23.1023 28.8695" stroke="#0000FA" stroke-width="0.8" stroke-linecap="round" stroke-linejoin="round"/>
<path d="M21.9553 24.8253C22.1551 24.8329 22.3549 24.8483 22.525 24.8406C22.6878 24.8329 22.8284 24.8023 22.969 24.7793" stroke="#0000FA" stroke-width="0.8" stroke-linecap="round" stroke-linejoin="round"/>
<path d="M22.2734 26.1888C22.5324 26.2041 22.7914 26.2271 22.9764 26.2194C23.1614 26.2041 23.2724 26.1581 23.3834 26.1198" stroke="#0000FA" stroke-width="0.8" stroke-linecap="round" stroke-linejoin="round"/>
<path d="M22.6435 27.3835C22.7989 27.5521 22.9617 27.7207 23.1689 27.874C23.3761 28.0349 23.6351 28.1729 23.8941 28.3185" stroke="#0000FA" stroke-width="0.8" stroke-linecap="round" stroke-linejoin="round"/>
</g>
<defs>
<clipPath id="clip0">
<rect width="130" height="42.9412" fill="white"/>
</clipPath>
</defs>
</svg>
