<svg width="320" height="106" viewBox="0 0 320 106" fill="none" xmlns="http://www.w3.org/2000/svg">
<g clip-path="url(#clip0)">
<path fill-rule="evenodd" clip-rule="evenodd" d="M131.548 79.9521H117.523C115.483 79.9521 114.044 79.4805 113.169 78.5372C112.313 77.594 111.876 76.0848 111.876 74.0474V38.299C111.876 36.205 112.313 34.6958 113.206 33.7903C114.098 32.8659 115.519 32.3943 117.523 32.3943H121.129L128.178 41.1475C127.268 42.0153 126.721 43.2604 126.721 44.6375C126.721 46.788 128.105 48.6179 130 49.2027L128.342 61.1252C126.375 61.6534 124.936 63.521 124.936 65.7281C124.936 68.3503 126.994 70.482 129.526 70.482C130.073 70.482 130.583 70.3877 131.075 70.1991L138.124 79.5371C138.051 79.5559 137.978 79.5559 137.905 79.5748C136.084 79.82 133.952 79.9521 131.548 79.9521ZM124.426 32.3943H132.386C134.572 32.3943 136.484 32.5452 138.087 32.8282C139.69 33.1112 141.147 33.6394 142.404 34.4506C143.497 35.1108 144.444 35.9597 145.3 36.9973C146.138 38.016 146.758 39.1479 147.195 40.3929C147.632 41.638 147.869 42.9397 147.869 44.3356C147.869 49.0895 145.574 52.5795 140.965 54.7866C147.013 56.7674 150.018 60.6347 150.018 66.3884C150.018 69.0483 149.362 71.4441 148.051 73.5758C146.721 75.7075 144.954 77.2733 142.714 78.292C142.149 78.5372 141.566 78.7447 140.929 78.9334L133.133 68.671C133.752 67.8598 134.116 66.8412 134.116 65.7281C134.116 63.5964 132.769 61.7854 130.911 61.1818L132.568 49.2027C134.499 48.6368 135.901 46.8069 135.901 44.6375C135.901 42.0153 133.843 39.8836 131.311 39.8836C131.038 39.8836 130.765 39.9024 130.51 39.9402L124.426 32.3943Z" fill="#00AFEF" stroke="#00AFEF" stroke-width="0.8"/>
<path fill-rule="evenodd" clip-rule="evenodd" d="M163.261 49.5988V74.6699C163.261 76.4055 162.86 77.726 162.077 78.6126C161.275 79.4993 160.273 79.952 159.053 79.952C157.814 79.952 156.831 79.4804 156.066 78.5749C155.301 77.6694 154.9 76.3677 154.9 74.6699V49.8629C154.9 48.1462 155.301 46.8446 156.066 45.9768C156.831 45.109 157.814 44.6751 159.053 44.6751C160.273 44.6751 161.275 45.109 162.077 45.9768C162.86 46.8446 163.261 48.0708 163.261 49.5988ZM159.126 40.6381C157.96 40.6381 156.976 40.2797 156.139 39.5439C155.319 38.8082 154.9 37.7518 154.9 36.3936C154.9 35.1862 155.319 34.1675 156.175 33.3752C157.031 32.5829 158.015 32.1867 159.126 32.1867C160.219 32.1867 161.166 32.5452 162.004 33.262C162.842 33.9977 163.261 35.0353 163.261 36.3936C163.261 37.7329 162.86 38.7705 162.04 39.5251C161.22 40.2608 160.255 40.6381 159.126 40.6381Z" fill="#00AFEF" stroke="#00AFEF" stroke-width="0.8"/>
<path fill-rule="evenodd" clip-rule="evenodd" d="M176.922 49.4668V50.5232C178.397 48.5047 180.018 47.0333 181.767 46.09C183.516 45.1468 185.519 44.6752 187.796 44.6752C190 44.6752 191.967 45.1845 193.716 46.1844C195.465 47.1653 196.758 48.5802 197.614 50.3912C198.179 51.4665 198.525 52.5984 198.689 53.8246C198.853 55.0508 198.944 56.6165 198.944 58.5218V74.67C198.944 76.4055 198.543 77.7261 197.778 78.6127C197.013 79.4993 196.011 79.9521 194.791 79.9521C193.534 79.9521 192.532 79.4805 191.749 78.575C190.965 77.6695 190.583 76.3678 190.583 74.67V60.2008C190.583 57.3522 190.2 55.1639 189.435 53.6548C188.67 52.1456 187.14 51.391 184.845 51.391C183.352 51.391 181.986 51.8438 180.765 52.7681C179.527 53.6736 178.634 54.9564 178.069 56.5599C177.669 57.8616 177.45 60.2574 177.45 63.8039V74.67C177.45 76.4244 177.049 77.7449 176.266 78.6127C175.483 79.4993 174.463 79.9521 173.224 79.9521C172.022 79.9521 171.038 79.4805 170.255 78.575C169.49 77.6695 169.089 76.3678 169.089 74.67V49.5989C169.089 47.9576 169.435 46.7126 170.128 45.9014C170.838 45.0902 171.767 44.6752 172.987 44.6752C173.716 44.6752 174.39 44.8638 174.973 45.2223C175.574 45.5807 176.029 46.1278 176.394 46.8446C176.74 47.5615 176.922 48.4481 176.922 49.4668Z" fill="#00AFEF" stroke="#00AFEF" stroke-width="0.8"/>
<path fill-rule="evenodd" clip-rule="evenodd" d="M226.812 75.0659C224.772 76.7071 222.823 77.9145 220.929 78.7257C219.034 79.5368 216.903 79.9519 214.572 79.9519C212.422 79.9519 210.528 79.4991 208.907 78.6125C207.286 77.7447 206.029 76.5562 205.136 75.0471C204.262 73.5379 203.825 71.9155 203.825 70.1611C203.825 67.7842 204.535 65.7657 205.992 64.1056C207.449 62.4266 209.453 61.2947 212.003 60.7288C212.531 60.5967 213.843 60.3138 215.938 59.8799C218.051 59.4271 219.854 59.031 221.366 58.6537C222.859 58.2764 224.499 57.8425 226.247 57.2954C226.138 55.0128 225.701 53.3338 224.918 52.2774C224.116 51.2021 222.495 50.6739 220.018 50.6739C217.887 50.6739 216.284 50.9758 215.227 51.5794C214.153 52.202 213.224 53.1075 212.459 54.3525C211.694 55.5787 211.147 56.3899 210.837 56.7861C210.51 57.1634 209.836 57.3709 208.797 57.3709C207.85 57.3709 207.031 57.0502 206.357 56.4276C205.683 55.8051 205.337 55.0128 205.337 54.0318C205.337 52.5038 205.847 51.0135 206.885 49.5798C207.941 48.1272 209.562 46.9387 211.766 46.0144C213.97 45.09 216.739 44.6184 220.036 44.6184C223.697 44.6184 226.612 45.0711 228.706 45.9766C230.819 46.8633 232.295 48.297 233.169 50.24C234.043 52.202 234.48 54.7676 234.48 57.9934C234.48 60.0308 234.462 61.7663 234.462 63.1812C234.444 64.596 234.444 66.1807 234.408 67.9162C234.408 69.5386 234.681 71.2553 235.209 73.0097C235.719 74.7641 235.974 75.9148 235.974 76.4242C235.974 77.3108 235.573 78.122 234.772 78.8577C233.952 79.5746 233.041 79.9519 232.021 79.9519C231.165 79.9519 230.309 79.5368 229.471 78.6879C228.633 77.8579 227.741 76.6506 226.812 75.0659ZM226.247 62.5021C225.027 62.9737 223.242 63.4642 220.892 63.9735C218.561 64.5017 216.939 64.8979 216.047 65.1243C215.136 65.3884 214.28 65.86 213.46 66.558C212.641 67.2748 212.24 68.2747 212.24 69.5386C212.24 70.8591 212.714 71.9721 213.679 72.8965C214.644 73.8209 215.901 74.2925 217.449 74.2925C219.107 74.2925 220.637 73.8963 222.021 73.1606C223.424 72.406 224.462 71.425 225.118 70.2366C225.865 68.9349 226.247 66.7655 226.247 63.7471V62.5021Z" fill="#0000FA" stroke="#FEFEFE" stroke-width="0.8"/>
<path fill-rule="evenodd" clip-rule="evenodd" d="M249.217 49.5988V74.6699C249.217 76.4055 248.816 77.726 248.033 78.6126C247.231 79.4993 246.229 79.952 244.991 79.952C243.77 79.952 242.787 79.4804 242.022 78.5749C241.257 77.6694 240.856 76.3677 240.856 74.6699V49.8629C240.856 48.1462 241.257 46.8446 242.022 45.9768C242.787 45.109 243.77 44.6751 244.991 44.6751C246.229 44.6751 247.231 45.109 248.033 45.9768C248.816 46.8446 249.217 48.0708 249.217 49.5988ZM245.082 40.6381C243.916 40.6381 242.932 40.2797 242.095 39.5439C241.275 38.8082 240.856 37.7518 240.856 36.3936C240.856 35.1862 241.275 34.1675 242.131 33.3752C242.987 32.5829 243.971 32.1867 245.082 32.1867C246.175 32.1867 247.122 32.5452 247.96 33.262C248.798 33.9977 249.217 35.0353 249.217 36.3936C249.217 37.7329 248.816 38.7705 247.996 39.5251C247.177 40.2608 246.211 40.6381 245.082 40.6381Z" fill="#0000FA" stroke="#0000FA" stroke-width="0.8"/>
<path fill-rule="evenodd" clip-rule="evenodd" d="M280.492 55.409L265.155 73.1795H281.567C282.896 73.1795 283.898 73.5002 284.572 74.1416C285.246 74.8018 285.574 75.6319 285.574 76.6317C285.574 77.6127 285.246 78.405 284.59 79.0275C283.916 79.6312 282.915 79.9519 281.567 79.9519H258.853C257.268 79.9519 256.066 79.5934 255.283 78.8577C254.499 78.1409 254.099 77.1599 254.099 75.9148C254.099 75.1791 254.372 74.4245 254.937 73.6699C255.483 72.9154 256.631 71.5382 258.361 69.5197C260.219 67.4069 261.876 65.4827 263.388 63.766C264.882 62.0493 266.284 60.4458 267.578 58.9555C268.853 57.4652 269.927 56.2013 270.784 55.1637C271.621 54.1073 272.295 53.2207 272.824 52.485H260.365C258.652 52.485 257.359 52.334 256.467 52.0133C255.592 51.6926 255.155 50.8626 255.155 49.5043C255.155 48.5234 255.483 47.7122 256.139 47.1274C256.813 46.5426 257.76 46.2408 258.98 46.2408H278.215C280 46.2408 281.366 46.5049 282.314 47.0519C283.261 47.5801 283.734 48.5611 283.734 49.9571C283.734 50.4098 283.643 50.9003 283.461 51.3908C283.279 51.9001 283.079 52.2963 282.842 52.617C282.623 52.9377 282.314 53.315 281.931 53.7866C281.53 54.2394 281.057 54.7676 280.492 55.409Z" fill="#00AFEF" stroke="#00AFEF" stroke-width="0.8"/>
<path fill-rule="evenodd" clip-rule="evenodd" d="M312.568 64.464H296.193C296.211 66.4259 296.593 68.1615 297.34 69.6706C298.087 71.1798 299.089 72.3117 300.309 73.0663C301.548 73.8397 302.914 74.217 304.408 74.217C305.409 74.217 306.32 74.1038 307.158 73.8586C307.996 73.6133 308.779 73.2361 309.562 72.7078C310.346 72.1985 311.056 71.6326 311.712 71.0478C312.368 70.4441 313.205 69.6518 314.262 68.6142C314.699 68.2369 315.3 68.0483 316.102 68.0483C316.958 68.0483 317.65 68.2935 318.196 68.784C318.706 69.2556 318.98 69.9536 318.98 70.8402C318.98 71.6326 318.688 72.5381 318.087 73.5945C317.504 74.632 316.612 75.6319 315.409 76.594C314.207 77.5561 312.714 78.3672 310.892 78.9898C309.089 79.6312 307.012 79.9519 304.663 79.9519C299.271 79.9519 295.1 78.3484 292.113 75.1791C289.125 71.991 287.65 67.6898 287.65 62.238C287.65 59.6912 288.014 57.2954 288.743 55.1071C289.471 52.9188 290.564 51.0512 291.967 49.4666C293.369 47.9197 295.118 46.7124 297.176 45.8823C299.235 45.0334 301.53 44.6184 304.043 44.6184C307.322 44.6184 310.127 45.3352 312.459 46.7689C314.808 48.2027 316.557 50.0325 317.723 52.3152C318.888 54.5789 319.471 56.8993 319.471 59.2385C319.471 61.4268 318.87 62.8416 317.668 63.5019C316.466 64.1244 314.772 64.464 312.568 64.464ZM296.193 59.5215H311.366C311.165 56.5597 310.4 54.3337 309.052 52.8622C307.723 51.4097 305.956 50.6739 303.77 50.6739C301.675 50.6739 299.963 51.4097 298.634 52.9C297.286 54.3903 296.466 56.5974 296.193 59.5215Z" fill="#00AFEF" stroke="#00AFEF" stroke-width="0.8"/>
<path d="M51.0565 105.755C79.2542 105.755 102.113 82.0811 102.113 52.8776C102.113 23.6741 79.2542 0 51.0565 0C22.8588 0 0 23.6741 0 52.8776C0 82.0811 22.8588 105.755 51.0565 105.755Z" fill="#00AFEF"/>
<path d="M50.6378 45.3921C58.8466 45.3921 65.5012 38.5002 65.5012 29.9985C65.5012 21.4969 58.8466 14.605 50.6378 14.605C42.429 14.605 35.7744 21.4969 35.7744 29.9985C35.7744 38.5002 42.429 45.3921 50.6378 45.3921Z" fill="#FEFEFE"/>
<path d="M62.5684 7.90829C62.6595 7.75737 62.8598 7.70077 63.0056 7.7951C63.1695 7.87056 63.2241 8.07807 63.1331 8.24785L58.3425 16.8313C58.1604 16.7181 57.96 16.6049 57.7779 16.5106L62.5684 7.90829ZM38.124 8.24785C38.0329 8.07807 38.0875 7.87056 38.2515 7.7951C38.3972 7.70077 38.5975 7.7385 38.6886 7.90829L43.4791 16.4917C43.297 16.6049 43.0966 16.7181 42.9145 16.8313L38.124 8.24785Z" fill="#0000FA"/>
<path fill-rule="evenodd" clip-rule="evenodd" d="M50.6376 43.4865C57.8325 43.4865 63.6613 37.4498 63.6613 29.9983C63.6613 22.5467 57.8325 16.4912 50.6376 16.4912C43.4245 16.4912 37.5957 22.5467 37.5957 29.9983C37.5957 37.4498 43.4245 43.4865 50.6376 43.4865Z" stroke="#0000FA" stroke-width="0.8" stroke-linecap="round" stroke-linejoin="round"/>
<path fill-rule="evenodd" clip-rule="evenodd" d="M50.6376 43.4865C57.8325 43.4865 63.6613 37.4498 63.6613 29.9983C63.6613 22.5467 57.8325 16.4912 50.6376 16.4912C43.4245 16.4912 37.5957 22.5467 37.5957 29.9983C37.5957 37.4498 43.4245 43.4865 50.6376 43.4865Z" fill="#FEFEFE" stroke="#0000FA" stroke-width="0.8"/>
<path d="M45.8468 25.773C46.6818 25.773 47.3586 25.072 47.3586 24.2072C47.3586 23.3425 46.6818 22.6415 45.8468 22.6415C45.0118 22.6415 44.335 23.3425 44.335 24.2072C44.335 25.072 45.0118 25.773 45.8468 25.773Z" fill="#0000FA"/>
<path d="M55.4098 25.773C56.2448 25.773 56.9216 25.072 56.9216 24.2072C56.9216 23.3425 56.2448 22.6415 55.4098 22.6415C54.5748 22.6415 53.8979 23.3425 53.8979 24.2072C53.8979 25.072 54.5748 25.773 55.4098 25.773Z" fill="#0000FA"/>
<path fill-rule="evenodd" clip-rule="evenodd" d="M46.6303 76.5564C46.8671 76.1791 47.0493 75.6886 47.0675 75.1792C47.0857 74.6699 46.9582 74.1794 46.6485 74.0285C46.3389 73.8964 45.8106 74.0851 45.4281 74.3869C45.0456 74.6888 44.7724 75.1038 44.6085 75.4999C44.4263 75.8961 44.3352 76.3111 44.317 76.5752C44.2806 76.8582 44.317 76.9902 44.3899 77.1412C44.4627 77.2732 44.572 77.4241 44.736 77.4996C44.8817 77.5751 45.0821 77.5939 45.2642 77.5562C45.4281 77.5373 45.5739 77.4619 45.8106 77.3109C46.0474 77.16 46.3753 76.9337 46.6303 76.5564Z" fill="#FEFEFE" stroke="#0000FA" stroke-width="0.8" stroke-linecap="round" stroke-linejoin="round"/>
<path fill-rule="evenodd" clip-rule="evenodd" d="M46.9036 74.142C47.2679 73.6138 47.5411 72.9158 47.7597 72.2178C47.9782 71.5198 48.124 70.8596 47.9782 70.3502C47.8325 69.8597 47.3954 69.539 46.8671 69.3881C46.3389 69.2183 45.7378 69.2183 45.3189 69.5013C44.8999 69.7654 44.6631 70.3125 44.2806 70.803C43.8799 71.3123 43.3334 71.7462 42.9691 72.1801C42.5866 72.614 42.3863 73.029 42.1495 73.6704C41.8944 74.3118 41.5848 75.1985 41.4755 75.7833C41.3662 76.3869 41.4391 76.6888 41.6577 76.934C41.8762 77.1604 42.2223 77.3113 42.6413 77.3113C43.0602 77.3113 43.5156 77.1415 43.9345 76.9151C44.3352 76.6888 44.6995 76.3681 44.9728 76.0851C45.2642 75.8021 45.4828 75.5569 45.8107 75.2739C46.1203 74.9909 46.5575 74.6514 46.9036 74.142Z" fill="#FEFEFE" stroke="#0000FA" stroke-width="0.8" stroke-linecap="round" stroke-linejoin="round"/>
<path fill-rule="evenodd" clip-rule="evenodd" d="M43.9161 65.0681C43.6247 65.4643 43.1693 66.0491 42.8596 66.6527C42.5682 67.2753 42.4407 67.9167 42.2768 68.4826C42.131 69.0297 41.9489 69.4824 41.7121 69.9918C41.4571 70.5011 41.111 71.0482 40.9835 71.5953C40.856 72.1423 40.9471 72.7083 41.366 73.0667C41.8032 73.4251 42.55 73.5761 43.0964 73.5195C43.6429 73.4629 43.989 73.1988 44.3351 72.8781C44.6994 72.5762 45.0637 72.2178 45.4097 71.6707C45.774 71.1237 46.1019 70.4068 46.5391 69.9541C46.9944 69.5202 47.5227 69.3692 47.9963 69.0863C48.4698 68.7844 48.8706 68.3317 49.1256 67.6903C49.3806 67.0489 49.4899 66.2188 49.5992 65.3133C49.7085 64.389 49.7813 63.3892 49.3988 62.8043C49.0163 62.2007 48.1602 61.9932 47.5773 62.0309C46.9762 62.0686 46.6666 62.3327 46.3205 62.578C45.9744 62.8232 45.6283 63.0496 45.3187 63.3137C45.009 63.5967 44.754 63.9174 44.5536 64.1815C44.3533 64.4456 44.2076 64.6719 43.9161 65.0681Z" fill="#FEFEFE" stroke="#0000FA" stroke-width="0.8" stroke-linecap="round" stroke-linejoin="round"/>
<path fill-rule="evenodd" clip-rule="evenodd" d="M47.796 57.3144C47.4317 57.3899 46.9035 57.6351 46.521 57.9935C46.1202 58.3331 45.8288 58.8047 45.5009 59.4273C45.1731 60.0687 44.7905 60.861 44.4991 61.4646C44.2077 62.0683 44.0073 62.4645 43.8069 62.8795C43.6066 63.2757 43.4426 63.6718 43.4609 64.0114C43.4791 64.3321 43.7159 64.5962 43.9527 64.8037C44.1895 64.9923 44.4445 65.1244 44.7905 65.181C45.1366 65.2376 45.5556 65.2376 45.9381 65.1621C46.3024 65.1055 46.612 64.9923 46.9399 64.7094C47.286 64.4264 47.6321 63.9736 47.9964 63.6718C48.3425 63.37 48.7068 63.2002 48.9253 62.9361C49.1439 62.672 49.2532 62.3136 49.3261 61.8231C49.3989 61.3326 49.4536 60.7101 49.4718 60.1441C49.4718 59.5782 49.4171 59.0688 49.2896 58.6161C49.1439 58.1633 48.8889 57.7483 48.6521 57.5031C48.4153 57.2767 48.1785 57.2201 47.796 57.3144Z" fill="#FEFEFE" stroke="#0000FA" stroke-width="0.8" stroke-linecap="round" stroke-linejoin="round"/>
<path fill-rule="evenodd" clip-rule="evenodd" d="M48.3789 50.0514H52.878V53.4848C52.368 53.0886 51.7122 52.7302 51.0201 52.6925C50.2186 52.6548 49.3807 53.0509 48.8889 53.6169C48.6703 53.881 48.5064 54.1828 48.3789 54.5412V50.0514Z" fill="#FEFEFE"/>
<path fill-rule="evenodd" clip-rule="evenodd" d="M66.7212 100.514C66.794 100.684 66.8122 100.778 66.4297 100.835C66.0654 100.911 65.3004 100.986 63.9343 101.043C62.5499 101.118 60.5463 101.175 58.9434 101.25C57.3222 101.307 56.0836 101.382 55.4097 101.344C54.7175 101.288 54.59 101.137 54.2804 100.08C53.9889 99.0052 53.5335 97.0244 53.0053 95.4398C52.4771 93.8551 51.876 92.6478 51.2202 91.5725C50.5645 90.5161 49.8359 89.5728 49.0709 88.1769C48.3059 86.7809 47.5044 84.9133 46.9033 83.0457C46.284 81.1969 45.8651 79.3293 45.7375 77.4617C45.5918 75.5941 45.7375 73.7265 46.1565 72.0853C46.5572 70.463 47.2312 69.067 47.5955 68.0106C47.9416 66.973 47.978 66.275 47.9962 65.3318C48.0144 64.4074 48.0144 63.2378 47.9416 62.3134C47.8869 61.3891 47.7776 60.7288 47.7776 59.6724C47.7776 58.616 47.9233 57.1634 48.0691 56.0692C48.2148 54.9562 48.3969 54.2016 48.8887 53.6168C49.3805 53.0509 50.2184 52.6547 50.9288 52.6359C51.6574 52.617 52.2585 52.9754 52.6592 53.2584C53.0417 53.5602 53.2239 53.7866 53.3332 53.9375C53.4607 54.0885 53.5335 54.1828 53.6064 54.2205C53.6793 54.2582 53.7339 54.2582 53.8978 54.296C54.0618 54.3148 54.335 54.3526 54.6082 54.4657C54.8632 54.5601 55.1365 54.7299 55.519 55.0883C55.9197 55.4467 56.4479 56.0126 56.9762 56.654C57.5226 57.2954 58.0873 57.9934 58.6884 58.7292C59.2895 59.4837 59.9088 60.2383 60.5827 61.0495C61.2385 61.8607 61.9306 62.7096 62.5681 63.4642C63.2057 64.1999 63.7885 64.8602 64.2257 65.6902C64.6446 66.5014 64.8997 67.5201 64.845 68.7651C64.7904 70.0291 64.4079 71.5382 64.1164 73.0097C63.825 74.5 63.6246 75.9526 63.4425 77.7447C63.2421 79.5557 63.0599 81.7063 63.0235 83.5173C63.0053 85.3283 63.1146 86.7997 63.4425 88.7051C63.7703 90.6104 64.3168 92.9685 64.8268 94.8927C65.355 96.8169 65.8468 98.326 66.1747 99.2127C66.5026 100.099 66.6301 100.363 66.7212 100.514Z" fill="#FEFEFE" stroke="#0000FA" stroke-width="0.8" stroke-linecap="round" stroke-linejoin="round"/>
<path fill-rule="evenodd" clip-rule="evenodd" d="M52.605 45.2411V48.184H48.6523V45.2411C49.2899 45.3354 49.9638 45.392 50.6378 45.392C51.2935 45.392 51.9675 45.3354 52.605 45.2411Z" fill="#FEFEFE"/>
<path fill-rule="evenodd" clip-rule="evenodd" d="M49.3076 48.1838H51.9488V50.0514H49.3076V48.1838Z" fill="#FEFEFE"/>
<path d="M46.7212 68.8599C46.9216 68.8222 47.1219 68.8033 47.3223 68.7656" stroke="#0000FA" stroke-width="0.8" stroke-linecap="round" stroke-linejoin="round"/>
<path fill-rule="evenodd" clip-rule="evenodd" d="M49.3623 54.2396C49.5627 54.0132 49.8541 53.768 50.2002 53.6359C50.5463 53.5039 50.947 53.485 51.3477 53.5416C51.7484 53.5793 52.1492 53.7114 52.4406 53.9378C52.7138 54.1641 52.896 54.466 52.9871 54.7678C53.0964 55.0697 53.0964 55.3338 53.0964 55.6545C53.0781 55.994 53.0599 56.3902 53.0053 56.6543C52.9506 56.8995 52.8778 57.0316 52.6592 57.107C52.4406 57.1825 52.0581 57.2014 51.6209 57.2202C51.202 57.2202 50.7284 57.2202 50.3459 57.2014C49.9452 57.1825 49.6355 57.1636 49.4169 57.0882C49.1801 57.0316 49.0344 56.9184 48.9798 56.56C48.9251 56.1827 48.9433 55.5413 48.998 55.1074C49.0526 54.6924 49.1619 54.466 49.3623 54.2396Z" fill="#FEFEFE" stroke="#0000FA" stroke-width="0.8" stroke-linecap="round" stroke-linejoin="round"/>
<path d="M53.4609 54.0888C53.6067 54.3152 53.7524 54.5416 53.8435 54.9566C53.9163 55.3527 53.9345 55.9375 53.9345 56.7676C53.9345 57.5788 53.9163 58.6352 53.9163 59.4086C53.9345 60.201 53.971 60.7103 54.1167 61.5592C54.2806 62.4081 54.572 63.6155 54.8999 64.7851C55.246 65.9547 55.6285 67.0865 55.9564 68.143C56.2842 69.1805 56.5757 70.1426 56.8671 71.1047" stroke="#0000FA" stroke-width="0.8" stroke-linecap="round" stroke-linejoin="round"/>
<path d="M54.0439 61.1438C54.5357 61.1627 55.0276 61.2004 55.4465 61.1815C55.8472 61.1627 56.1933 61.0872 56.5394 61.0306" stroke="#0000FA" stroke-width="0.8" stroke-linecap="round" stroke-linejoin="round"/>
<path d="M54.8271 64.5019C55.4647 64.5397 56.1022 64.5963 56.5576 64.5774C57.0129 64.5397 57.2862 64.4265 57.5594 64.3322" stroke="#0000FA" stroke-width="0.8" stroke-linecap="round" stroke-linejoin="round"/>
<path d="M55.7378 67.4447C56.1203 67.8598 56.521 68.2748 57.0311 68.6521C57.5411 69.0482 58.1786 69.3878 58.8161 69.7462" stroke="#0000FA" stroke-width="0.8" stroke-linecap="round" stroke-linejoin="round"/>
</g>
<defs>
<clipPath id="clip0">
<rect width="320" height="105.763" fill="white"/>
</clipPath>
</defs>
</svg>
