<svg width="500" height="350" viewBox="0 0 500 350" fill="none" xmlns="http://www.w3.org/2000/svg">
<g clip-path="url(#clip0)">
<path d="M240.698 75.3832V139.71H363.367" fill="#F2F2F2"/>
<path d="M381.317 140.209H240.198V13.0516H241.195V139.211H381.317V140.209Z" fill="#3F3D56"/>
<path d="M242.24 140.35L241.348 139.904C247.482 127.632 260.276 118.926 273.943 117.726C276.301 117.519 278.771 117.498 281.16 117.478C287.763 117.424 294.589 117.367 299.567 113.33C303.252 110.342 305.033 105.946 306.919 101.293C307.842 98.8664 308.922 96.5028 310.153 94.217C312.535 90.1443 315.875 86.714 319.883 84.2238C323.89 81.7336 328.445 80.2585 333.151 79.9265C333.516 79.9053 333.887 79.8924 334.264 79.8883C335.069 78.8131 335.952 77.7986 336.906 76.8533C341.738 72.0739 347.926 68.941 353.91 65.9114L355.327 65.1931C361.66 61.9711 368.218 58.3573 372.696 52.7589C375.496 49.1751 377.363 44.9529 378.13 40.4704C378.898 35.9879 378.542 31.385 377.094 27.0738L378.036 26.7456C379.537 31.2164 379.907 35.9897 379.111 40.6382C378.315 45.2866 376.378 49.6652 373.475 53.3817C368.872 59.1355 362.209 62.8106 355.779 66.0818L354.361 66.8011C348.445 69.7961 342.328 72.893 337.607 77.5623C336.861 78.301 336.161 79.0835 335.508 79.9058C341.144 80.1274 347.7 82.3024 351.384 87.9374C352.419 89.584 353.099 91.4282 353.38 93.3523C353.662 95.2764 353.54 97.2382 353.021 99.1123C352.132 102.383 350.153 104.925 347.446 106.269C344.589 107.689 341.213 107.648 337.938 106.153C336.031 105.288 334.335 104.018 332.967 102.431C331.6 100.845 330.595 98.9795 330.021 96.9652C328.513 91.1367 330.499 85.3693 333.537 80.9056C333.428 80.9102 333.319 80.9158 333.209 80.9224C328.668 81.2427 324.274 82.6658 320.407 85.0684C316.54 87.471 313.318 90.7804 311.02 94.7099C309.812 96.9578 308.751 99.282 307.844 101.668C305.993 106.233 304.08 110.955 300.195 114.105C294.947 118.362 287.942 118.42 281.169 118.476C278.799 118.496 276.349 118.516 274.031 118.719C260.7 119.89 248.222 128.38 242.24 140.35ZM334.769 80.8834C331.641 85.2184 329.495 90.9505 330.986 96.7154C331.521 98.5866 332.458 100.319 333.73 101.792C335.002 103.265 336.58 104.444 338.353 105.246C341.348 106.613 344.42 106.66 347.002 105.376C349.45 104.16 351.245 101.843 352.059 98.8508C352.53 97.1115 352.64 95.2937 352.38 93.5104C352.121 91.727 351.498 90.0159 350.549 88.4833C347.507 83.8293 341.427 80.9384 334.769 80.8834Z" fill="#3F3D56"/>
<path d="M309.513 105.3C314.47 105.3 318.489 101.282 318.489 96.3246C318.489 91.3673 314.47 87.3486 309.513 87.3486C304.556 87.3486 300.537 91.3673 300.537 96.3246C300.537 101.282 304.556 105.3 309.513 105.3Z" fill="#6C63FF"/>
<path d="M215.902 259.362H0V156.663H215.902V259.362ZM0.997309 258.365H214.904V157.66H0.997309V258.365Z" fill="#3F3D56"/>
<path d="M492.521 336.677H160.916V337.674H492.521V336.677Z" fill="#3F3D56"/>
<path d="M415.057 115.935L410.956 136.439C410.956 136.439 405.684 148.156 408.027 156.358L409.785 159.873L420.915 149.913L425.016 122.379L415.057 115.935Z" fill="#A0616A"/>
<path d="M392.208 305.745L385.764 330.349L393.38 333.864L400.41 328.006L404.511 309.26L392.208 305.745Z" fill="#A0616A"/>
<path d="M478.618 296.078L481.84 331.521H498.243L490.335 292.563L478.618 296.078Z" fill="#A0616A"/>
<path d="M453.132 165.73L456.451 149.503L417.983 140.54L409.781 153.428C409.781 153.428 395.721 175.689 392.206 243.646C388.691 311.602 387.52 311.016 387.52 311.016L416.225 313.945L430.871 219.041L467.192 305.744L494.726 298.128L460.162 193.85C460.162 193.85 462.506 178.619 453.132 165.73Z" fill="#2F2E41"/>
<path d="M393.966 325.076L389.865 329.177L387.521 326.834L388.801 318.225L382.249 322.147C382.249 322.147 370.532 320.389 371.704 332.692C371.704 332.692 369.947 336.793 379.906 341.479C389.865 346.166 395.137 349.095 395.137 349.095C395.137 349.095 404.51 348.509 404.51 345.58C404.51 342.651 401.557 322.761 401.557 322.761L393.966 325.076Z" fill="#2F2E41"/>
<path d="M489.454 325.076L485.353 329.177L483.01 326.834L480.551 318.225L477.737 322.147C477.737 322.147 466.021 320.389 467.192 332.692C467.192 332.692 465.435 336.793 475.394 341.479C485.353 346.166 490.625 349.095 490.625 349.095C490.625 349.095 499.999 348.509 499.999 345.58C499.999 342.651 497.045 322.761 497.045 322.761L489.454 325.076Z" fill="#2F2E41"/>
<path d="M443.176 81.9567C452.558 81.9567 460.165 74.3505 460.165 64.9677C460.165 55.5849 452.558 47.9786 443.176 47.9786C433.793 47.9786 426.187 55.5849 426.187 64.9677C426.187 74.3505 433.793 81.9567 443.176 81.9567Z" fill="#A0616A"/>
<path d="M437.903 77.8553L439.074 97.7736H461.336L454.892 70.8253L437.903 77.8553Z" fill="#A0616A"/>
<path d="M425.013 89.5749L443.174 88.4032L462.507 89.5749C462.507 89.5749 478.91 98.3623 470.123 122.381C461.335 146.4 454.891 154.016 454.891 154.016L436.144 145.815H430.286C430.286 145.815 428.528 144.057 427.943 144.057C427.357 144.057 416.226 145.815 416.226 145.815C416.226 145.815 413.297 133.512 417.398 132.34C421.498 131.169 423.842 124.725 423.842 124.725L425.013 89.5749Z" fill="#D0CDE1"/>
<path d="M428.53 91.3305L425.015 89.5728L412.712 118.279L426.186 127.066L428.53 91.3305Z" fill="#D0CDE1"/>
<path d="M418.864 63.5044C418.864 63.5044 410.662 42.4145 426.876 40.3964C426.876 40.3964 447.319 27.8387 460.458 48.8586L470.827 74.4533L467.363 73.7648L466.923 77.2133L462.503 79.925L459.178 76.4892L459.728 81.7489L421.643 97.9232C421.643 97.9232 436.001 82.0227 430.462 63.2758L428.214 67.865L418.864 63.5044Z" fill="#2F2E41"/>
<path d="M182.011 324.414C179.881 332.288 172.585 337.164 172.585 337.164C172.585 337.164 168.743 329.274 170.873 321.401C173.003 313.527 180.299 308.65 180.299 308.65C180.299 308.65 184.141 316.54 182.011 324.414Z" fill="#6C63FF"/>
<path d="M162.633 324.414C164.763 332.288 172.059 337.164 172.059 337.164C172.059 337.164 175.901 329.274 173.771 321.401C171.641 313.527 164.345 308.65 164.345 308.65C164.345 308.65 160.503 316.54 162.633 324.414Z" fill="#6C63FF"/>
<path d="M165.762 322.723C171.607 328.413 172.321 337.16 172.321 337.16C172.321 337.16 163.559 336.681 157.714 330.991C151.869 325.302 151.155 316.555 151.155 316.555C151.155 316.555 159.917 317.034 165.762 322.723Z" fill="#3F3D56"/>
<path d="M178.876 322.723C173.031 328.413 172.317 337.16 172.317 337.16C172.317 337.16 181.079 336.681 186.924 330.991C192.769 325.302 193.483 316.555 193.483 316.555C193.483 316.555 184.721 317.034 178.876 322.723Z" fill="#3F3D56"/>
<path d="M93.1613 42.3098C95.3291 35.2086 99.3289 28.8037 104.758 23.7395C110.188 18.6753 116.855 15.1305 124.09 13.4618C119.026 8.03015 112.621 4.02743 105.52 1.85603C98.4182 -0.315366 90.8702 -0.578917 83.6345 1.09188C76.3988 2.76268 69.7305 6.30893 64.2999 11.3741C58.8694 16.4393 54.868 22.8449 52.6981 29.9469C50.5282 37.0489 50.2662 44.597 51.9386 51.8324C53.6109 59.0677 57.1586 65.7353 62.2249 71.1648C67.2913 76.5942 73.6977 80.5942 80.8002 82.7626C87.9026 84.931 95.4508 85.1914 102.686 83.5175C97.6192 78.0903 94.0713 71.4244 92.3993 64.1905C90.7273 56.9566 90.9901 49.4099 93.1613 42.3098Z" fill="#6C63FF"/>
<path d="M152.268 16.1399C145.168 13.9619 137.617 13.7015 130.384 15.3853C135.449 20.8135 138.996 27.4795 140.668 34.713C142.339 41.9466 142.078 49.4929 139.908 56.5932C137.739 63.6935 133.738 70.0975 128.309 75.1615C122.88 80.2254 116.213 83.7708 108.979 85.4412C113.405 90.1859 118.862 93.849 124.93 96.147C130.997 98.445 137.512 99.3164 143.97 98.6937C150.428 98.0711 156.657 95.971 162.173 92.5561C167.69 89.1411 172.347 84.5029 175.785 79.0001C179.222 73.4973 181.347 67.2775 181.996 60.8219C182.645 54.3663 181.8 47.8479 179.526 41.7712C177.253 35.6944 173.612 30.222 168.886 25.7775C164.159 21.3329 158.473 18.0354 152.268 16.1399Z" fill="#3F3D56"/>
<path d="M136.312 55.4936C142.222 36.1482 137.958 17.6989 126.787 14.2858C115.616 10.8728 101.769 23.7884 95.8584 43.1338C89.9478 62.4791 94.212 80.9285 105.383 84.3415C116.554 87.7546 130.401 74.8389 136.312 55.4936Z" fill="#D0CDE1"/>
<path d="M378.827 38.4813C383.784 38.4813 387.803 34.4627 387.803 29.5055C387.803 24.5483 383.784 20.5297 378.827 20.5297C373.87 20.5297 369.851 24.5483 369.851 29.5055C369.851 34.4627 373.87 38.4813 378.827 38.4813Z" fill="#6C63FF"/>
<path d="M354.393 75.3807C359.35 75.3807 363.369 71.3622 363.369 66.405C363.369 61.4478 359.35 57.4292 354.393 57.4292C349.436 57.4292 345.417 61.4478 345.417 66.405C345.417 71.3622 349.436 75.3807 354.393 75.3807Z" fill="#6C63FF"/>
<path d="M168.43 179.922H4.33594V252.404H168.43V179.922Z" fill="#F2F2F2"/>
<path d="M168.728 175.051H12.4878V188.914H168.728V175.051Z" fill="#6C63FF"/>
<path d="M158.799 180.11H22.417V183.857H158.799V180.11Z" fill="#3F3D56"/>
<path d="M90.4213 187.041C93.3183 187.041 95.6667 184.692 95.6667 181.796C95.6667 178.899 93.3183 176.55 90.4213 176.55C87.5243 176.55 85.1758 178.899 85.1758 181.796C85.1758 184.692 87.5243 187.041 90.4213 187.041Z" fill="#3F3D56"/>
<path d="M131.26 199.78H49.5801V238.747H131.26V199.78Z" fill="#6C63FF"/>
<path opacity="0.15" d="M90.4208 226.757C94.5594 226.757 97.9143 223.402 97.9143 219.263C97.9143 215.125 94.5594 211.77 90.4208 211.77C86.2822 211.77 82.9272 215.125 82.9272 219.263C82.9272 223.402 86.2822 226.757 90.4208 226.757Z" fill="black"/>
<path opacity="0.3" d="M116.649 226.757C120.787 226.757 124.142 223.402 124.142 219.263C124.142 215.125 120.787 211.77 116.649 211.77C112.51 211.77 109.155 215.125 109.155 219.263C109.155 223.402 112.51 226.757 116.649 226.757Z" fill="white"/>
<path opacity="0.3" d="M64.1927 226.757C68.3313 226.757 71.6862 223.402 71.6862 219.263C71.6862 215.125 68.3313 211.77 64.1927 211.77C60.0542 211.77 56.6992 215.125 56.6992 219.263C56.6992 223.402 60.0542 226.757 64.1927 226.757Z" fill="black"/>
</g>
<defs>
<clipPath id="clip0">
<rect width="500" height="349.096" fill="white"/>
</clipPath>
</defs>
</svg>
